<svg width="28" height="26" viewBox="0 0 28 26" fill="none" xmlns="http://www.w3.org/2000/svg">
<path d="M20.6378 13.6127L11.9324 22.2794C11.7625 22.4486 11.5396 22.5333 11.317 22.5333C11.0943 22.5333 10.8715 22.4486 10.7015 22.2794C10.3613 21.9408 10.3613 21.3924 10.7015 21.0539L17.9208 13.8667H0.870536C0.389782 13.8667 0 13.4786 0 13C0 12.5214 0.389782 12.1333 0.870536 12.1333H17.9208L10.7015 4.94607C10.3613 4.60742 10.3613 4.05903 10.7015 3.7206C11.0417 3.38217 11.5925 3.38195 11.9324 3.7206L20.6378 12.3873C20.978 12.7257 20.978 13.2743 20.6378 13.6127ZM27.8571 20.8V5.2C27.8571 2.33263 25.5141 0 22.6339 0H16.5402C16.0594 0 15.6696 0.38805 15.6696 0.866667C15.6696 1.34528 16.0594 1.73333 16.5402 1.73333H22.6339C24.5539 1.73333 26.1161 3.28857 26.1161 5.2V20.8C26.1161 22.7114 24.5539 24.2667 22.6339 24.2667H16.5402C16.0594 24.2667 15.6696 24.6547 15.6696 25.1333C15.6696 25.6119 16.0594 26 16.5402 26H22.6339C25.5141 26 27.8571 23.6674 27.8571 20.8Z" fill="#B4F299"/>
</svg>
