<svg width="112" height="111" viewBox="0 0 112 111" fill="none" xmlns="http://www.w3.org/2000/svg">
<g filter="url(#filter0_d_21_723)">
<path d="M65.1875 30H46.8125C45.2616 30 44 31.2625 44 32.8145V46.934C44 48.486 45.2616 49.7485 46.8125 49.7485H51.2036C52.1377 49.7485 53.0257 50.1863 53.6009 50.9223C54.8113 52.471 57.1733 52.4817 58.3711 50.9233C58.9405 50.1826 59.8216 49.7485 60.7558 49.7485H65.1875C66.7384 49.7485 68 48.486 68 46.934V32.8145C68 31.2625 66.7384 30 65.1875 30ZM66.125 46.934C66.125 47.4513 65.7044 47.8722 65.1875 47.8722H59.4195C58.7458 47.8722 58.1102 48.1852 57.6996 48.7194C56.8356 49.8434 55.1321 49.8358 54.2592 48.7187C53.8444 48.1879 53.2039 47.8722 52.5302 47.8722H46.8125C46.2956 47.8722 45.875 47.4513 45.875 46.934V32.8145C45.875 32.2972 46.2956 31.8763 46.8125 31.8763H65.1875C65.7044 31.8763 66.125 32.2972 66.125 32.8145V46.934ZM55.0167 35.2538C55.0167 34.606 55.5413 34.0811 56.1886 34.0811C56.8357 34.0811 57.3605 34.606 57.3605 35.2538C57.3605 35.9015 56.8357 36.4265 56.1886 36.4265C55.5413 36.4265 55.0167 35.9015 55.0167 35.2538ZM56.8269 43.8846C57.1787 43.7129 57.603 43.859 57.7746 44.2108L57.9754 44.6228C58.147 44.9747 58.0009 45.3992 57.649 45.5709C57.3315 45.7261 56.9904 45.8025 56.6509 45.8025C56.1754 45.8025 55.7036 45.6526 55.3047 45.3591C54.6214 44.8561 54.2764 44.0224 54.4044 43.1833C54.4088 43.154 54.4147 43.1249 54.422 43.0961L55.0681 40.5241C55.1334 40.2644 55.2201 39.9442 55.0045 39.7854C54.9319 39.7321 54.7818 39.656 54.5934 39.7482C54.1688 39.9555 53.6569 39.779 53.4501 39.3542L53.3773 39.2046C53.1708 38.7803 53.347 38.2689 53.7711 38.0619C54.5337 37.6895 55.4318 37.7709 56.1154 38.2739C56.7987 38.7767 57.1437 39.6104 57.0159 40.4494C57.0113 40.4788 57.0054 40.5079 56.9983 40.5367L56.3521 43.1088C56.2869 43.3684 56.2003 43.6884 56.4156 43.8474C56.4883 43.9009 56.6383 43.9768 56.8269 43.8846Z" fill="url(#paint0_linear_21_723)"/>
</g>
<defs>
<filter id="filter0_d_21_723" x="0" y="0" width="112" height="110.088" filterUnits="userSpaceOnUse" color-interpolation-filters="sRGB">
<feFlood flood-opacity="0" result="BackgroundImageFix"/>
<feColorMatrix in="SourceAlpha" type="matrix" values="0 0 0 0 0 0 0 0 0 0 0 0 0 0 0 0 0 0 127 0" result="hardAlpha"/>
<feOffset dy="14"/>
<feGaussianBlur stdDeviation="22"/>
<feComposite in2="hardAlpha" operator="out"/>
<feColorMatrix type="matrix" values="0 0 0 0 0.862745 0 0 0 0 0.596078 0 0 0 0 0.223529 0 0 0 0.6 0"/>
<feBlend mode="normal" in2="BackgroundImageFix" result="effect1_dropShadow_21_723"/>
<feBlend mode="normal" in="SourceGraphic" in2="effect1_dropShadow_21_723" result="shape"/>
</filter>
<linearGradient id="paint0_linear_21_723" x1="40.2759" y1="26.6897" x2="65.5172" y2="56.069" gradientUnits="userSpaceOnUse">
<stop stop-color="#CAEE39"/>
<stop offset="1" stop-color="#E99A3D"/>
</linearGradient>
</defs>
</svg>
